<svg width="358" height="370" viewBox="0 0 358 370" fill="none" xmlns="http://www.w3.org/2000/svg">
<path d="M73.2981 318.504C70.9712 323.542 69.1096 327.14 67.7135 329.299C66.3173 331.458 63.8159 333.917 60.2091 336.676C56.6024 339.435 51.8322 341.474 45.8986 342.794C39.9649 344.113 32.2279 344.893 22.6875 345.133C22.9202 337.456 23.4438 330.919 24.2582 325.521C25.0726 320.123 25.9452 315.865 26.876 312.746C27.8067 309.628 29.3774 306.869 31.588 304.47C33.7986 302.071 35.7765 300.331 37.5216 299.252C39.2668 298.172 41.8846 296.673 45.375 294.754C54.45 290.196 61.6635 285.758 67.0154 281.439L53.4029 263.447C49.9125 266.086 43.8625 269.684 35.2529 274.242C26.4106 278.801 19.7207 283.479 15.1832 288.277C10.6457 293.075 6.98078 300.931 4.18848 311.847C1.39617 322.762 1.61013e-05 337.576 1.61013e-05 356.288L0.349054 368.163L11.1692 367.803C25.5962 367.803 37.5798 367.083 47.1202 365.644C56.6606 364.205 64.3394 361.626 70.1567 357.907C75.974 354.189 80.3952 350.41 83.4202 346.572C86.4452 342.734 89.5865 337.336 92.8442 330.379C96.3346 322.942 98.8942 317.664 100.523 314.545L84.1183 299.072C82.4894 301.231 80.9188 303.57 79.4063 306.089C77.8938 308.608 76.7885 310.647 76.0904 312.206C75.3923 313.766 74.4615 315.865 73.2981 318.504ZM246.072 68.7689C233.739 68.7689 223.21 73.267 214.484 82.2633C205.758 91.2595 201.395 102.115 201.395 114.83C201.395 123.226 203.373 130.963 207.329 138.04C211.285 145.117 216.695 150.694 223.559 154.773C230.424 158.851 237.928 160.89 246.072 160.89C254.216 160.89 261.721 158.851 268.585 154.773C275.449 150.694 280.86 145.117 284.815 138.04C288.771 130.963 290.749 123.226 290.749 114.83C290.749 109.792 289.993 104.934 288.48 100.256C286.968 95.5776 284.874 91.3194 282.198 87.4811C279.522 83.6427 276.322 80.3441 272.599 77.5852C268.876 74.8264 264.746 72.6673 260.208 71.108C255.671 69.5486 250.959 68.7689 246.072 68.7689ZM245.898 137.86C239.731 137.86 234.496 135.581 230.191 131.023C225.886 126.465 223.734 121.067 223.734 114.83C223.734 108.592 225.886 103.194 230.191 98.6364C234.496 94.0783 239.789 91.7992 246.072 91.7992C250.028 91.7992 253.751 92.8188 257.241 94.858C260.732 96.8971 263.466 99.7159 265.444 103.314C267.422 106.913 268.411 110.751 268.411 114.83C268.411 121.067 266.2 126.465 261.779 131.023C257.358 135.581 252.064 137.86 245.898 137.86ZM357.415 11.1932C357.183 8.31439 356.077 5.85542 354.099 3.81628C352.122 1.77714 349.736 0.63762 346.944 0.397721C346.013 0.397721 344.792 0.337746 343.279 0.217797C341.767 0.0978471 338.451 0.0378723 333.332 0.0378723C328.212 0.0378723 322.977 0.157822 317.625 0.397721C312.273 0.63762 305.699 1.17739 297.904 2.01704C290.109 2.85669 282.43 3.93623 274.868 5.25568C267.305 6.57512 259.045 8.43434 250.086 10.8333C241.127 13.2323 232.576 15.9912 224.432 19.1098C203.024 27.2664 184.06 41.3005 167.538 61.2121C165.444 63.6111 163.408 66.19 161.43 68.9489C159.452 71.7077 157.416 75.0063 155.322 78.8447C153.228 82.6831 151.366 85.9817 149.737 88.7405C148.109 91.4994 146.073 95.3377 143.629 100.256C141.186 105.174 139.383 108.832 138.219 111.231C137.056 113.63 135.078 117.648 132.286 123.286C129.493 128.924 127.748 132.462 127.05 133.902L124.607 138.939L122.512 143.437L120.069 148.295L117.975 152.434L115.881 156.752L113.787 160.53H51.6577C48.4 160.53 45.6077 161.73 43.2808 164.129L2.44329 210.189C-0.349022 213.308 -1.10527 216.967 0.174535 221.165C1.45434 225.363 4.18848 227.942 8.37694 228.902L75.0433 244.735C77.8356 248.333 85.8635 257.689 99.1269 272.803L124.258 301.591L137.87 360.966C138.801 365.284 141.361 368.043 145.549 369.242C145.782 369.482 146.073 369.602 146.422 369.602C146.771 369.602 147.178 369.662 147.643 369.782C148.109 369.902 148.458 369.962 148.69 369.962C151.483 369.962 153.926 369.003 156.02 367.083L197.556 324.621C198.021 324.141 198.545 323.542 199.126 322.822C199.708 322.102 200.174 321.383 200.523 320.663C200.872 319.943 201.104 319.164 201.221 318.324C201.337 317.484 201.395 316.705 201.395 315.985V256.61C203.024 255.41 205.06 254.091 207.503 252.652C209.947 251.212 213.321 249.293 217.625 246.894C221.93 244.495 224.781 242.936 226.177 242.216C230.365 239.577 239.091 234.719 252.355 227.642C265.618 220.565 276.497 214.448 284.99 209.29C293.483 204.132 300.057 199.394 304.711 195.076C315.182 185.48 323.093 176.544 328.445 168.267C333.797 159.991 338.567 149.975 342.756 138.22C346.246 128.384 349.155 117.348 351.482 105.114C353.809 92.8788 355.379 81.8434 356.194 72.0076C357.008 62.1717 357.532 52.2159 357.764 42.1401C357.997 32.0644 357.997 24.9874 357.764 20.9091C357.532 16.8308 357.415 13.5922 357.415 11.1932ZM321.813 129.943C318.09 140.259 314.076 148.775 309.772 155.492C305.467 162.21 298.893 169.646 290.051 177.803C285.862 181.641 279.58 186.08 271.203 191.117C262.826 196.155 252.471 201.913 240.138 208.39C227.806 214.867 219.545 219.426 215.357 222.064C196.509 232.86 185.805 239.337 183.245 241.496C182.547 241.976 181.965 242.576 181.5 243.295C181.035 244.015 180.627 244.735 180.278 245.455C179.929 246.174 179.638 246.954 179.406 247.794C179.173 248.633 179.057 249.533 179.057 250.492V310.587L155.322 337.216L145.549 293.674C144.851 291.515 143.92 289.836 142.757 288.636C109.016 249.773 91.099 229.141 89.0048 226.742C88.074 225.783 87.0851 224.943 86.038 224.223C84.9909 223.504 83.8856 223.024 82.7221 222.784L31.7625 210.909L56.8933 183.561H120.418C120.884 183.561 121.465 183.501 122.163 183.381C122.862 183.261 123.501 183.081 124.083 182.841C124.665 182.601 125.247 182.301 125.828 181.941C126.41 181.581 126.934 181.222 127.399 180.862C127.864 180.502 128.272 180.082 128.621 179.602C128.97 179.122 129.377 178.523 129.842 177.803C133.1 172.525 138.801 161.37 146.945 144.337C147.643 143.138 149.563 139.299 152.704 132.822C155.846 126.345 157.998 121.847 159.162 119.328C160.325 116.809 162.303 112.85 165.095 107.453C167.887 102.055 170.156 97.8567 171.901 94.858C173.647 91.8592 175.683 88.5606 178.01 84.9621C180.337 81.3636 182.431 78.3649 184.292 75.9659C198.254 59.173 214.193 47.4179 232.111 40.7008C263.059 28.7058 297.497 22.8283 335.426 23.0682C336.124 67.2096 331.586 102.835 321.813 129.943Z" fill="white"/>
</svg>
